<svg xmlns="http://www.w3.org/2000/svg" width="220" height="64" viewBox="0 0 220 64" fill="none">
<rect width="64" height="64" rx="6" fill="#0B2E59"/>
<path d="M16 16H32C40.837 16 48 23.163 48 32C48 40.837 40.837 48 32 48H16V16Z" fill="#D9E3F0"/>
<path d="M24 24H32C36.418 24 40 27.582 40 32C40 36.418 36.418 40 32 40H24V24Z" fill="#0B2E59"/>
<path d="M52 16V48" stroke="#C8A45B" stroke-width="4"/>
<path d="M84 20H103.6C111.553 20 118 26.447 118 34.4C118 42.353 111.553 48.8 103.6 48.8H84V20Z" fill="#0B2E59"/>
<path d="M124 20H132V48.8H124V20ZM132 20H152.4V27.2H132V20Z" fill="#0B2E59"/>
<path d="M156 20H184V27.2H156V20ZM156 30.8H181.2V38H156V30.8ZM156 41.6H184V48.8H156V41.6Z" fill="#0B2E59"/>
<path d="M190 20H198V48.8H190V20ZM198 20H218V27.2H198V20Z" fill="#0B2E59"/>
</svg>